<?xml version="1.0" encoding="utf-8" standalone="no"?>
<!DOCTYPE svg PUBLIC "-//W3C//DTD SVG 1.1//EN"
  "http://www.w3.org/Graphics/SVG/1.1/DTD/svg11.dtd">
<svg xmlns:xlink="http://www.w3.org/1999/xlink" width="231.84pt" height="231.84pt" viewBox="0 0 231.84 231.84" xmlns="http://www.w3.org/2000/svg" version="1.1">
 <metadata>
  <rdf:RDF xmlns:dc="http://purl.org/dc/elements/1.1/" xmlns:cc="http://creativecommons.org/ns#" xmlns:rdf="http://www.w3.org/1999/02/22-rdf-syntax-ns#">
   <cc:Work>
    <dc:type rdf:resource="http://purl.org/dc/dcmitype/StillImage"/>
    <dc:date>2022-01-04T21:43:03.235279</dc:date>
    <dc:format>image/svg+xml</dc:format>
    <dc:creator>
     <cc:Agent>
      <dc:title>Matplotlib v3.5.1, https://matplotlib.org/</dc:title>
     </cc:Agent>
    </dc:creator>
   </cc:Work>
  </rdf:RDF>
 </metadata>
 <defs>
  <style type="text/css">*{stroke-linejoin: round; stroke-linecap: butt}</style>
 </defs>
 <g id="figure_1">
  <g id="patch_1">
   <path d="M 0 231.84 
L 231.84 231.84 
L 231.84 0 
L 0 0 
L 0 231.84 
z
" style="fill: none"/>
  </g>
  <g id="patch_2">
   <path d="M 7.2 224.64 
L 224.64 224.64 
L 224.64 7.2 
L 7.2 7.2 
L 7.2 224.64 
z
" style="fill: none"/>
  </g>
  <g id="axes_1">
   <g id="line2d_1">
    <path d="M 42.791011 106.661348 
L 63.060703 62.847165 
L 83.330395 78.762511 
L 63.060703 122.576694 
L 42.791011 106.661348 
" clip-path="url(#p78e6105b9e)" style="fill: none; stroke-dasharray: 1.5,2.475; stroke-dashoffset: 0; stroke: #000000; stroke-width: 1.5"/>
   </g>
   <g id="line2d_2">
    <path d="M 159.397763 55.218019 
L 131.498925 74.947938 
L 83.330395 78.762511 
L 63.060703 62.847165 
L 90.959541 43.117246 
L 139.128071 39.302673 
L 159.397763 55.218019 
" clip-path="url(#p78e6105b9e)" style="fill: none; stroke-dasharray: 1.5,2.475; stroke-dashoffset: 0; stroke: #000000; stroke-width: 1.5"/>
   </g>
   <g id="line2d_3">
    <path d="M 42.791011 106.661348 
L 50.420156 130.745613 
L 78.318994 170.745224 
L 98.588686 186.66057 
L 90.959541 162.576305 
L 63.060703 122.576694 
L 42.791011 106.661348 
" clip-path="url(#p78e6105b9e)" style="fill: none; stroke-dasharray: 1.5,2.475; stroke-dashoffset: 0; stroke: #000000; stroke-width: 1.5"/>
   </g>
   <g id="line2d_4">
    <path d="M 187.296601 95.21763 
L 194.925746 119.301895 
L 174.656054 103.386549 
L 146.757216 63.386938 
L 139.128071 39.302673 
L 159.397763 55.218019 
L 187.296601 95.21763 
" clip-path="url(#p78e6105b9e)" style="fill: none; stroke: #000000; stroke-width: 1.5; stroke-linecap: square"/>
   </g>
   <g id="line2d_5">
    <path d="M 159.397763 114.947549 
L 131.498925 74.947938 
L 159.397763 55.218019 
L 187.296601 95.21763 
L 159.397763 114.947549 
" clip-path="url(#p78e6105b9e)" style="fill: none; stroke-dasharray: 1.5,2.475; stroke-dashoffset: 0; stroke: #000000; stroke-width: 1.5"/>
   </g>
   <g id="line2d_6">
    <path d="M 159.397763 114.947549 
L 139.128071 158.761732 
L 146.757216 182.845997 
L 174.656054 163.116079 
L 194.925746 119.301895 
L 187.296601 95.21763 
L 159.397763 114.947549 
" clip-path="url(#p78e6105b9e)" style="fill: none; stroke-dasharray: 1.5,2.475; stroke-dashoffset: 0; stroke: #000000; stroke-width: 1.5"/>
   </g>
   <g id="line2d_7">
    <path d="M 159.397763 114.947549 
L 139.128071 158.761732 
L 90.959541 162.576305 
L 63.060703 122.576694 
L 83.330395 78.762511 
L 131.498925 74.947938 
L 159.397763 114.947549 
" clip-path="url(#p78e6105b9e)" style="fill: none; stroke-dasharray: 1.5,2.475; stroke-dashoffset: 0; stroke: #000000; stroke-width: 1.5"/>
   </g>
   <g id="line2d_8">
    <path d="M 50.420156 130.745613 
L 42.791011 106.661348 
L 63.060703 62.847165 
L 90.959541 43.117246 
L 98.588686 67.201511 
L 78.318994 111.015695 
L 50.420156 130.745613 
" clip-path="url(#p78e6105b9e)" style="fill: none; stroke: #000000; stroke-width: 1.5; stroke-linecap: square"/>
   </g>
   <g id="line2d_9">
    <path d="M 78.318994 170.745224 
L 98.588686 186.66057 
L 146.757216 182.845997 
L 174.656054 163.116079 
L 154.386362 147.200733 
L 106.217832 151.015306 
L 78.318994 170.745224 
" clip-path="url(#p78e6105b9e)" style="fill: none; stroke: #000000; stroke-width: 1.5; stroke-linecap: square"/>
   </g>
   <g id="line2d_10">
    <path d="M 194.925746 119.301895 
L 174.656054 163.116079 
L 154.386362 147.200733 
L 174.656054 103.386549 
L 194.925746 119.301895 
" clip-path="url(#p78e6105b9e)" style="fill: none; stroke: #000000; stroke-width: 1.5; stroke-linecap: square"/>
   </g>
   <g id="line2d_11">
    <path d="M 139.128071 158.761732 
L 90.959541 162.576305 
L 98.588686 186.66057 
L 146.757216 182.845997 
L 139.128071 158.761732 
" clip-path="url(#p78e6105b9e)" style="fill: none; stroke-dasharray: 1.5,2.475; stroke-dashoffset: 0; stroke: #000000; stroke-width: 1.5"/>
   </g>
   <g id="line2d_12">
    <path d="M 50.420156 130.745613 
L 78.318994 111.015695 
L 106.217832 151.015306 
L 78.318994 170.745224 
L 50.420156 130.745613 
" clip-path="url(#p78e6105b9e)" style="fill: none; stroke: #000000; stroke-width: 1.5; stroke-linecap: square"/>
   </g>
   <g id="line2d_13">
    <path d="M 90.959541 43.117246 
L 98.588686 67.201511 
L 146.757216 63.386938 
L 139.128071 39.302673 
L 90.959541 43.117246 
" clip-path="url(#p78e6105b9e)" style="fill: none; stroke: #000000; stroke-width: 1.5; stroke-linecap: square"/>
   </g>
   <g id="line2d_14">
    <path d="M 106.217832 151.015306 
L 78.318994 111.015695 
L 98.588686 67.201511 
L 146.757216 63.386938 
L 174.656054 103.386549 
L 154.386362 147.200733 
L 106.217832 151.015306 
" clip-path="url(#p78e6105b9e)" style="fill: none; stroke: #000000; stroke-width: 1.5; stroke-linecap: square"/>
   </g>
   <g id="line2d_15">
    <path d="M 118.858378 112.981622 
L 174.656054 133.251314 
L 154.386362 147.200733 
L 130.302097 149.108019 
L 118.858378 112.981622 
L 126.487524 107.201122 
L 164.521208 125.293641 
L 154.386362 147.200733 
L 126.487524 107.201122 
L 130.302097 149.108019 
" clip-path="url(#p78e6105b9e)" style="fill: none; stroke: #ff0000; stroke-width: 1.5; stroke-linecap: square"/>
    <defs>
     <path id="m4f838ce208" d="M 0 1.5 
C 0.397805 1.5 0.77937 1.341951 1.06066 1.06066 
C 1.341951 0.77937 1.5 0.397805 1.5 0 
C 1.5 -0.397805 1.341951 -0.77937 1.06066 -1.06066 
C 0.77937 -1.341951 0.397805 -1.5 0 -1.5 
C -0.397805 -1.5 -0.77937 -1.341951 -1.06066 -1.06066 
C -1.341951 -0.77937 -1.5 -0.397805 -1.5 0 
C -1.5 0.397805 -1.341951 0.77937 -1.06066 1.06066 
C -0.77937 1.341951 -0.397805 1.5 0 1.5 
z
" style="stroke: #ff0000"/>
    </defs>
    <g clip-path="url(#p78e6105b9e)">
     <use xlink:href="#m4f838ce208" x="118.858378" y="112.981622" style="fill: #ff0000; stroke: #ff0000"/>
     <use xlink:href="#m4f838ce208" x="174.656054" y="133.251314" style="fill: #ff0000; stroke: #ff0000"/>
     <use xlink:href="#m4f838ce208" x="154.386362" y="147.200733" style="fill: #ff0000; stroke: #ff0000"/>
     <use xlink:href="#m4f838ce208" x="130.302097" y="149.108019" style="fill: #ff0000; stroke: #ff0000"/>
     <use xlink:href="#m4f838ce208" x="118.858378" y="112.981622" style="fill: #ff0000; stroke: #ff0000"/>
     <use xlink:href="#m4f838ce208" x="126.487524" y="107.201122" style="fill: #ff0000; stroke: #ff0000"/>
     <use xlink:href="#m4f838ce208" x="164.521208" y="125.293641" style="fill: #ff0000; stroke: #ff0000"/>
     <use xlink:href="#m4f838ce208" x="154.386362" y="147.200733" style="fill: #ff0000; stroke: #ff0000"/>
     <use xlink:href="#m4f838ce208" x="126.487524" y="107.201122" style="fill: #ff0000; stroke: #ff0000"/>
     <use xlink:href="#m4f838ce208" x="130.302097" y="149.108019" style="fill: #ff0000; stroke: #ff0000"/>
    </g>
   </g>
   <g id="line2d_16">
    <path d="M 164.521208 125.293641 
L 174.656054 133.251314 
" clip-path="url(#p78e6105b9e)" style="fill: none; stroke: #ff0000; stroke-width: 1.5; stroke-linecap: square"/>
    <g clip-path="url(#p78e6105b9e)">
     <use xlink:href="#m4f838ce208" x="164.521208" y="125.293641" style="fill: #ff0000; stroke: #ff0000"/>
     <use xlink:href="#m4f838ce208" x="174.656054" y="133.251314" style="fill: #ff0000; stroke: #ff0000"/>
    </g>
   </g>
   <g id="patch_3">
    <path d="M 120.495944 111.836639 
Q 167.026376 79.302656 212.640535 47.40933 
" clip-path="url(#p78e6105b9e)" style="fill: none; stroke: #000000; stroke-linecap: round"/>
    <path d="M 203.792125 48.715336 
L 212.640535 47.40933 
L 208.376294 55.271661 
L 203.792125 48.715336 
z
" clip-path="url(#p78e6105b9e)" style="stroke: #000000; stroke-linecap: round"/>
   </g>
   <g id="Path3DCollection_1">
    <defs>
     <path id="m9f9c07e0c7" d="M 0 1.118034 
C 0.296506 1.118034 0.580908 1.000231 0.790569 0.790569 
C 1.000231 0.580908 1.118034 0.296506 1.118034 0 
C 1.118034 -0.296506 1.000231 -0.580908 0.790569 -0.790569 
C 0.580908 -1.000231 0.296506 -1.118034 0 -1.118034 
C -0.296506 -1.118034 -0.580908 -1.000231 -0.790569 -0.790569 
C -1.000231 -0.580908 -1.118034 -0.296506 -1.118034 0 
C -1.118034 0.296506 -1.000231 0.580908 -0.790569 0.790569 
C -0.580908 1.000231 -0.296506 1.118034 0 1.118034 
z
" style="stroke: #0000ff"/>
    </defs>
    <g clip-path="url(#p78e6105b9e)">
     <use xlink:href="#m9f9c07e0c7" x="118.858378" y="112.981622" style="fill: #0000ff; stroke: #0000ff"/>
    </g>
   </g>
   <g id="text_1">
    <!-- $\mathrm{\Gamma}$ -->
    <g style="fill: #008000" transform="translate(116.058378 110.901934)scale(0.1 -0.1)">
     <defs>
      <path id="DejaVuSans-393" d="M 628 0 
L 628 4666 
L 3531 4666 
L 3531 4134 
L 1259 4134 
L 1259 0 
L 628 0 
z
" transform="scale(0.015625)"/>
     </defs>
     <use xlink:href="#DejaVuSans-393" transform="translate(0 0.09375)"/>
    </g>
   </g>
   <g id="text_2">
    <!-- $\mathrm{X}$ -->
    <g style="fill: #008000" transform="translate(171.206054 131.171626)scale(0.1 -0.1)">
     <defs>
      <path id="DejaVuSans-58" d="M 403 4666 
L 1081 4666 
L 2241 2931 
L 3406 4666 
L 4084 4666 
L 2584 2425 
L 4184 0 
L 3506 0 
L 2194 1984 
L 872 0 
L 191 0 
L 1856 2491 
L 403 4666 
z
" transform="scale(0.015625)"/>
     </defs>
     <use xlink:href="#DejaVuSans-58" transform="translate(0 0.09375)"/>
    </g>
   </g>
   <g id="text_3">
    <!-- $\mathrm{W}$ -->
    <g style="fill: #008000" transform="translate(149.436362 145.121045)scale(0.1 -0.1)">
     <defs>
      <path id="DejaVuSans-57" d="M 213 4666 
L 850 4666 
L 1831 722 
L 2809 4666 
L 3519 4666 
L 4500 722 
L 5478 4666 
L 6119 4666 
L 4947 0 
L 4153 0 
L 3169 4050 
L 2175 0 
L 1381 0 
L 213 4666 
z
" transform="scale(0.015625)"/>
     </defs>
     <use xlink:href="#DejaVuSans-57" transform="translate(0 0.09375)"/>
    </g>
   </g>
   <g id="text_4">
    <!-- $\mathrm{K}$ -->
    <g style="fill: #008000" transform="translate(127.002097 147.028332)scale(0.1 -0.1)">
     <defs>
      <path id="DejaVuSans-4b" d="M 628 4666 
L 1259 4666 
L 1259 2694 
L 3353 4666 
L 4166 4666 
L 1850 2491 
L 4331 0 
L 3500 0 
L 1259 2247 
L 1259 0 
L 628 0 
L 628 4666 
z
" transform="scale(0.015625)"/>
     </defs>
     <use xlink:href="#DejaVuSans-4b" transform="translate(0 0.09375)"/>
    </g>
   </g>
   <g id="text_5">
    <!-- $\mathrm{\Gamma}$ -->
    <g style="fill: #008000" transform="translate(116.058378 110.901934)scale(0.1 -0.1)">
     <use xlink:href="#DejaVuSans-393" transform="translate(0 0.09375)"/>
    </g>
   </g>
   <g id="text_6">
    <!-- $\mathrm{L}$ -->
    <g style="fill: #008000" transform="translate(123.687524 105.121434)scale(0.1 -0.1)">
     <defs>
      <path id="DejaVuSans-4c" d="M 628 4666 
L 1259 4666 
L 1259 531 
L 3531 531 
L 3531 0 
L 628 0 
L 628 4666 
z
" transform="scale(0.015625)"/>
     </defs>
     <use xlink:href="#DejaVuSans-4c" transform="translate(0 0.09375)"/>
    </g>
   </g>
   <g id="text_7">
    <!-- $\mathrm{U}$ -->
    <g style="fill: #008000" transform="translate(160.821208 123.213953)scale(0.1 -0.1)">
     <defs>
      <path id="DejaVuSans-55" d="M 556 4666 
L 1191 4666 
L 1191 1831 
Q 1191 1081 1462 751 
Q 1734 422 2344 422 
Q 2950 422 3222 751 
Q 3494 1081 3494 1831 
L 3494 4666 
L 4128 4666 
L 4128 1753 
Q 4128 841 3676 375 
Q 3225 -91 2344 -91 
Q 1459 -91 1007 375 
Q 556 841 556 1753 
L 556 4666 
z
" transform="scale(0.015625)"/>
     </defs>
     <use xlink:href="#DejaVuSans-55" transform="translate(0 0.09375)"/>
    </g>
   </g>
   <g id="text_8">
    <!-- $\mathrm{W}$ -->
    <g style="fill: #008000" transform="translate(149.436362 145.121045)scale(0.1 -0.1)">
     <use xlink:href="#DejaVuSans-57" transform="translate(0 0.09375)"/>
    </g>
   </g>
   <g id="text_9">
    <!-- $\mathrm{L}$ -->
    <g style="fill: #008000" transform="translate(123.687524 105.121434)scale(0.1 -0.1)">
     <use xlink:href="#DejaVuSans-4c" transform="translate(0 0.09375)"/>
    </g>
   </g>
   <g id="text_10">
    <!-- $\mathrm{K}$ -->
    <g style="fill: #008000" transform="translate(127.002097 147.028332)scale(0.1 -0.1)">
     <use xlink:href="#DejaVuSans-4b" transform="translate(0 0.09375)"/>
    </g>
   </g>
   <g id="text_11">
    <!-- $\mathrm{U}$ -->
    <g style="fill: #008000" transform="translate(160.821208 123.213953)scale(0.1 -0.1)">
     <use xlink:href="#DejaVuSans-55" transform="translate(0 0.09375)"/>
    </g>
   </g>
   <g id="text_12">
    <!-- $\mathrm{X}$ -->
    <g style="fill: #008000" transform="translate(171.206054 131.171626)scale(0.1 -0.1)">
     <use xlink:href="#DejaVuSans-58" transform="translate(0 0.09375)"/>
    </g>
   </g>
   <g id="patch_4">
    <path d="M 117.097334 112.029225 
Q 70.688184 86.930529 25.262462 62.363685 
" clip-path="url(#p78e6105b9e)" style="fill: none; stroke: #000000; stroke-linecap: round"/>
    <path d="M 30.3965 69.687732 
L 25.262462 62.363685 
L 34.202122 62.650884 
L 30.3965 69.687732 
z
" clip-path="url(#p78e6105b9e)" style="stroke: #000000; stroke-linecap: round"/>
   </g>
   <g id="Path3DCollection_2">
    <g clip-path="url(#p78e6105b9e)">
     <use xlink:href="#m9f9c07e0c7" x="118.858378" y="112.981622" style="fill: #0000ff; stroke: #0000ff"/>
    </g>
   </g>
   <g id="patch_5">
    <path d="M 119.138232 114.960587 
Q 126.487348 166.929405 133.679916 217.791204 
" clip-path="url(#p78e6105b9e)" style="fill: none; stroke: #000000; stroke-linecap: round"/>
    <path d="M 136.520344 209.309932 
L 133.679916 217.791204 
L 128.599155 210.430099 
L 136.520344 209.309932 
z
" clip-path="url(#p78e6105b9e)" style="stroke: #000000; stroke-linecap: round"/>
   </g>
   <g id="Path3DCollection_3">
    <g clip-path="url(#p78e6105b9e)">
     <use xlink:href="#m9f9c07e0c7" x="174.656054" y="133.251314" style="fill: #0000ff; stroke: #0000ff"/>
    </g>
   </g>
   <g id="Path3DCollection_4">
    <g clip-path="url(#p78e6105b9e)">
     <use xlink:href="#m9f9c07e0c7" x="174.656054" y="133.251314" style="fill: #0000ff; stroke: #0000ff"/>
    </g>
   </g>
   <g id="Path3DCollection_5">
    <g clip-path="url(#p78e6105b9e)">
     <use xlink:href="#m9f9c07e0c7" x="164.521208" y="125.293641" style="fill: #0000ff; stroke: #0000ff"/>
    </g>
   </g>
   <g id="Path3DCollection_6">
    <g clip-path="url(#p78e6105b9e)">
     <use xlink:href="#m9f9c07e0c7" x="164.521208" y="125.293641" style="fill: #0000ff; stroke: #0000ff"/>
    </g>
   </g>
   <g id="Path3DCollection_7">
    <g clip-path="url(#p78e6105b9e)">
     <use xlink:href="#m9f9c07e0c7" x="126.487524" y="107.201122" style="fill: #0000ff; stroke: #0000ff"/>
    </g>
   </g>
   <g id="Path3DCollection_8">
    <g clip-path="url(#p78e6105b9e)">
     <use xlink:href="#m9f9c07e0c7" x="126.487524" y="107.201122" style="fill: #0000ff; stroke: #0000ff"/>
    </g>
   </g>
   <g id="Path3DCollection_9">
    <g clip-path="url(#p78e6105b9e)">
     <use xlink:href="#m9f9c07e0c7" x="154.386362" y="147.200733" style="fill: #0000ff; stroke: #0000ff"/>
    </g>
   </g>
   <g id="Path3DCollection_10">
    <g clip-path="url(#p78e6105b9e)">
     <use xlink:href="#m9f9c07e0c7" x="154.386362" y="147.200733" style="fill: #0000ff; stroke: #0000ff"/>
    </g>
   </g>
   <g id="Path3DCollection_11">
    <g clip-path="url(#p78e6105b9e)">
     <use xlink:href="#m9f9c07e0c7" x="130.302097" y="149.108019" style="fill: #0000ff; stroke: #0000ff"/>
    </g>
   </g>
   <g id="Path3DCollection_12">
    <g clip-path="url(#p78e6105b9e)">
     <use xlink:href="#m9f9c07e0c7" x="130.302097" y="149.108019" style="fill: #0000ff; stroke: #0000ff"/>
    </g>
   </g>
  </g>
 </g>
 <defs>
  <clipPath id="p78e6105b9e">
   <rect x="7.2" y="7.2" width="217.44" height="217.44"/>
  </clipPath>
 </defs>
</svg>
