<?xml version="1.0" encoding="utf-8" standalone="no"?>
<!DOCTYPE svg PUBLIC "-//W3C//DTD SVG 1.1//EN"
  "http://www.w3.org/Graphics/SVG/1.1/DTD/svg11.dtd">
<svg xmlns:xlink="http://www.w3.org/1999/xlink" width="231.84pt" height="231.84pt" viewBox="0 0 231.84 231.84" xmlns="http://www.w3.org/2000/svg" version="1.1">
 <metadata>
  <rdf:RDF xmlns:dc="http://purl.org/dc/elements/1.1/" xmlns:cc="http://creativecommons.org/ns#" xmlns:rdf="http://www.w3.org/1999/02/22-rdf-syntax-ns#">
   <cc:Work>
    <dc:type rdf:resource="http://purl.org/dc/dcmitype/StillImage"/>
    <dc:date>2022-01-04T21:43:12.547169</dc:date>
    <dc:format>image/svg+xml</dc:format>
    <dc:creator>
     <cc:Agent>
      <dc:title>Matplotlib v3.5.1, https://matplotlib.org/</dc:title>
     </cc:Agent>
    </dc:creator>
   </cc:Work>
  </rdf:RDF>
 </metadata>
 <defs>
  <style type="text/css">*{stroke-linejoin: round; stroke-linecap: butt}</style>
 </defs>
 <g id="figure_1">
  <g id="patch_1">
   <path d="M 0 231.84 
L 231.84 231.84 
L 231.84 0 
L 0 0 
L 0 231.84 
z
" style="fill: none"/>
  </g>
  <g id="patch_2">
   <path d="M 7.2 224.64 
L 224.64 224.64 
L 224.64 7.2 
L 7.2 7.2 
L 7.2 224.64 
z
" style="fill: none"/>
  </g>
  <g id="axes_1">
   <g id="line2d_1">
    <path d="M 108.490462 61.190914 
L 76.722113 94.173714 
L 47.804635 114.074461 
L 54.768099 94.391959 
L 86.536448 61.409159 
L 115.453926 41.508412 
L 108.490462 61.190914 
" clip-path="url(#p176ca7e6d7)" style="fill: none; stroke-dasharray: 1.5,2.475; stroke-dashoffset: 0; stroke: #000000; stroke-width: 1.5"/>
   </g>
   <g id="line2d_2">
    <path d="M 86.536448 61.409159 
L 115.453926 41.508412 
L 149.635823 60.576968 
L 120.718345 80.477715 
L 86.536448 61.409159 
" clip-path="url(#p176ca7e6d7)" style="fill: none; stroke: #000000; stroke-width: 1.5; stroke-linecap: square"/>
   </g>
   <g id="line2d_3">
    <path d="M 54.768099 94.391959 
L 88.949995 113.460515 
L 120.718345 80.477715 
L 86.536448 61.409159 
L 54.768099 94.391959 
" clip-path="url(#p176ca7e6d7)" style="fill: none; stroke: #000000; stroke-width: 1.5; stroke-linecap: square"/>
   </g>
   <g id="line2d_4">
    <path d="M 47.804635 114.074461 
L 76.722113 94.173714 
L 115.453926 146.655764 
L 86.536448 166.556511 
L 47.804635 114.074461 
" clip-path="url(#p176ca7e6d7)" style="fill: none; stroke-dasharray: 1.5,2.475; stroke-dashoffset: 0; stroke: #000000; stroke-width: 1.5"/>
   </g>
   <g id="line2d_5">
    <path d="M 108.490462 61.190914 
L 76.722113 94.173714 
L 115.453926 146.655764 
L 147.222275 113.672964 
L 108.490462 61.190914 
" clip-path="url(#p176ca7e6d7)" style="fill: none; stroke-dasharray: 1.5,2.475; stroke-dashoffset: 0; stroke: #000000; stroke-width: 1.5"/>
   </g>
   <g id="line2d_6">
    <path d="M 181.404172 132.741521 
L 188.367636 113.059018 
L 159.450157 132.959766 
L 127.681808 165.942565 
L 120.718345 185.625067 
L 149.635823 165.72432 
L 181.404172 132.741521 
" clip-path="url(#p176ca7e6d7)" style="fill: none; stroke: #000000; stroke-width: 1.5; stroke-linecap: square"/>
   </g>
   <g id="line2d_7">
    <path d="M 181.404172 132.741521 
L 147.222275 113.672964 
L 115.453926 146.655764 
L 149.635823 165.72432 
L 181.404172 132.741521 
" clip-path="url(#p176ca7e6d7)" style="fill: none; stroke-dasharray: 1.5,2.475; stroke-dashoffset: 0; stroke: #000000; stroke-width: 1.5"/>
   </g>
   <g id="line2d_8">
    <path d="M 120.718345 185.625067 
L 86.536448 166.556511 
L 115.453926 146.655764 
L 149.635823 165.72432 
L 120.718345 185.625067 
" clip-path="url(#p176ca7e6d7)" style="fill: none; stroke-dasharray: 1.5,2.475; stroke-dashoffset: 0; stroke: #000000; stroke-width: 1.5"/>
   </g>
   <g id="line2d_9">
    <path d="M 147.222275 113.672964 
L 108.490462 61.190914 
L 115.453926 41.508412 
L 149.635823 60.576968 
L 188.367636 113.059018 
L 181.404172 132.741521 
L 147.222275 113.672964 
" clip-path="url(#p176ca7e6d7)" style="fill: none; stroke-dasharray: 1.5,2.475; stroke-dashoffset: 0; stroke: #000000; stroke-width: 1.5"/>
   </g>
   <g id="line2d_10">
    <path d="M 47.804635 114.074461 
L 54.768099 94.391959 
L 88.949995 113.460515 
L 127.681808 165.942565 
L 120.718345 185.625067 
L 86.536448 166.556511 
L 47.804635 114.074461 
" clip-path="url(#p176ca7e6d7)" style="fill: none; stroke: #000000; stroke-width: 1.5; stroke-linecap: square"/>
   </g>
   <g id="line2d_11">
    <path d="M 149.635823 60.576968 
L 188.367636 113.059018 
L 159.450157 132.959766 
L 120.718345 80.477715 
L 149.635823 60.576968 
" clip-path="url(#p176ca7e6d7)" style="fill: none; stroke: #000000; stroke-width: 1.5; stroke-linecap: square"/>
   </g>
   <g id="line2d_12">
    <path d="M 120.718345 80.477715 
L 88.949995 113.460515 
L 127.681808 165.942565 
L 159.450157 132.959766 
L 120.718345 80.477715 
" clip-path="url(#p176ca7e6d7)" style="fill: none; stroke: #000000; stroke-width: 1.5; stroke-linecap: square"/>
   </g>
   <g id="line2d_13">
    <path d="M 87.743222 140.008513 
L 118.086135 113.56674 
L 154.54299 149.342043 
" clip-path="url(#p176ca7e6d7)" style="fill: none; stroke: #ff0000; stroke-width: 1.5; stroke-linecap: square"/>
    <defs>
     <path id="md1285af1c6" d="M 0 1.5 
C 0.397805 1.5 0.77937 1.341951 1.06066 1.06066 
C 1.341951 0.77937 1.5 0.397805 1.5 0 
C 1.5 -0.397805 1.341951 -0.77937 1.06066 -1.06066 
C 0.77937 -1.341951 0.397805 -1.5 0 -1.5 
C -0.397805 -1.5 -0.77937 -1.341951 -1.06066 -1.06066 
C -1.341951 -0.77937 -1.5 -0.397805 -1.5 0 
C -1.5 0.397805 -1.341951 0.77937 -1.06066 1.06066 
C -0.77937 1.341951 -0.397805 1.5 0 1.5 
z
" style="stroke: #ff0000"/>
    </defs>
    <g clip-path="url(#p176ca7e6d7)">
     <use xlink:href="#md1285af1c6" x="87.743222" y="140.008513" style="fill: #ff0000; stroke: #ff0000"/>
     <use xlink:href="#md1285af1c6" x="118.086135" y="113.56674" style="fill: #ff0000; stroke: #ff0000"/>
     <use xlink:href="#md1285af1c6" x="154.54299" y="149.342043" style="fill: #ff0000; stroke: #ff0000"/>
    </g>
   </g>
   <g id="line2d_14">
    <path d="M 124.200076 175.783816 
L 118.086135 113.56674 
L 118.086135 60.993064 
" clip-path="url(#p176ca7e6d7)" style="fill: none; stroke: #ff0000; stroke-width: 1.5; stroke-linecap: square"/>
    <g clip-path="url(#p176ca7e6d7)">
     <use xlink:href="#md1285af1c6" x="124.200076" y="175.783816" style="fill: #ff0000; stroke: #ff0000"/>
     <use xlink:href="#md1285af1c6" x="118.086135" y="113.56674" style="fill: #ff0000; stroke: #ff0000"/>
     <use xlink:href="#md1285af1c6" x="118.086135" y="60.993064" style="fill: #ff0000; stroke: #ff0000"/>
    </g>
   </g>
   <g id="line2d_15">
    <path d="M 87.743222 87.434837 
L 118.086135 113.56674 
L 154.54299 96.768367 
" clip-path="url(#p176ca7e6d7)" style="fill: none; stroke: #ff0000; stroke-width: 1.5; stroke-linecap: square"/>
    <g clip-path="url(#p176ca7e6d7)">
     <use xlink:href="#md1285af1c6" x="87.743222" y="87.434837" style="fill: #ff0000; stroke: #ff0000"/>
     <use xlink:href="#md1285af1c6" x="118.086135" y="113.56674" style="fill: #ff0000; stroke: #ff0000"/>
     <use xlink:href="#md1285af1c6" x="154.54299" y="96.768367" style="fill: #ff0000; stroke: #ff0000"/>
    </g>
   </g>
   <g id="line2d_16">
    <path d="M 124.200076 123.21014 
L 118.086135 113.56674 
" clip-path="url(#p176ca7e6d7)" style="fill: none; stroke: #ff0000; stroke-width: 1.5; stroke-linecap: square"/>
    <g clip-path="url(#p176ca7e6d7)">
     <use xlink:href="#md1285af1c6" x="124.200076" y="123.21014" style="fill: #ff0000; stroke: #ff0000"/>
     <use xlink:href="#md1285af1c6" x="118.086135" y="113.56674" style="fill: #ff0000; stroke: #ff0000"/>
    </g>
   </g>
   <g id="patch_3">
    <path d="M 116.57862 114.880436 
Q 87.742557 140.009092 59.749389 164.403223 
" clip-path="url(#p176ca7e6d7)" style="fill: none; stroke: #000000; stroke-linecap: round"/>
    <path d="M 68.408575 162.16302 
L 59.749389 164.403223 
L 63.152738 156.131752 
L 68.408575 162.16302 
z
" clip-path="url(#p176ca7e6d7)" style="stroke: #000000; stroke-linecap: round"/>
   </g>
   <g id="Path3DCollection_1">
    <defs>
     <path id="m8137eb790d" d="M 0 1.118034 
C 0.296506 1.118034 0.580908 1.000231 0.790569 0.790569 
C 1.000231 0.580908 1.118034 0.296506 1.118034 0 
C 1.118034 -0.296506 1.000231 -0.580908 0.790569 -0.790569 
C 0.580908 -1.000231 0.296506 -1.118034 0 -1.118034 
C -0.296506 -1.118034 -0.580908 -1.000231 -0.790569 -0.790569 
C -1.000231 -0.580908 -1.118034 -0.296506 -1.118034 0 
C -1.118034 0.296506 -1.000231 0.580908 -0.790569 0.790569 
C -0.580908 1.000231 -0.296506 1.118034 0 1.118034 
z
" style="stroke: #0000ff"/>
    </defs>
    <g clip-path="url(#p176ca7e6d7)">
     <use xlink:href="#m8137eb790d" x="118.086135" y="113.56674" style="fill: #0000ff; stroke: #0000ff"/>
    </g>
   </g>
   <g id="text_1">
    <!-- $\mathrm{X}$ -->
    <g style="fill: #008000" transform="translate(84.293222 137.928826)scale(0.1 -0.1)">
     <defs>
      <path id="DejaVuSans-58" d="M 403 4666 
L 1081 4666 
L 2241 2931 
L 3406 4666 
L 4084 4666 
L 2584 2425 
L 4184 0 
L 3506 0 
L 2194 1984 
L 872 0 
L 191 0 
L 1856 2491 
L 403 4666 
z
" transform="scale(0.015625)"/>
     </defs>
     <use xlink:href="#DejaVuSans-58" transform="translate(0 0.09375)"/>
    </g>
   </g>
   <g id="text_2">
    <!-- $\mathrm{\Gamma}$ -->
    <g style="fill: #008000" transform="translate(115.286135 111.487052)scale(0.1 -0.1)">
     <defs>
      <path id="DejaVuSans-393" d="M 628 0 
L 628 4666 
L 3531 4666 
L 3531 4134 
L 1259 4134 
L 1259 0 
L 628 0 
z
" transform="scale(0.015625)"/>
     </defs>
     <use xlink:href="#DejaVuSans-393" transform="translate(0 0.09375)"/>
    </g>
   </g>
   <g id="text_3">
    <!-- $\mathrm{Y}$ -->
    <g style="fill: #008000" transform="translate(151.44299 147.262355)scale(0.1 -0.1)">
     <defs>
      <path id="DejaVuSans-59" d="M -13 4666 
L 666 4666 
L 1959 2747 
L 3244 4666 
L 3922 4666 
L 2272 2222 
L 2272 0 
L 1638 0 
L 1638 2222 
L -13 4666 
z
" transform="scale(0.015625)"/>
     </defs>
     <use xlink:href="#DejaVuSans-59" transform="translate(0 0.09375)"/>
    </g>
   </g>
   <g id="text_4">
    <!-- $\mathrm{L}$ -->
    <g style="fill: #008000" transform="translate(121.400076 173.704129)scale(0.1 -0.1)">
     <defs>
      <path id="DejaVuSans-4c" d="M 628 4666 
L 1259 4666 
L 1259 531 
L 3531 531 
L 3531 0 
L 628 0 
L 628 4666 
z
" transform="scale(0.015625)"/>
     </defs>
     <use xlink:href="#DejaVuSans-4c" transform="translate(0 0.09375)"/>
    </g>
   </g>
   <g id="text_5">
    <!-- $\mathrm{\Gamma}$ -->
    <g style="fill: #008000" transform="translate(115.286135 111.487052)scale(0.1 -0.1)">
     <use xlink:href="#DejaVuSans-393" transform="translate(0 0.09375)"/>
    </g>
   </g>
   <g id="text_6">
    <!-- $\mathrm{Z}$ -->
    <g style="fill: #008000" transform="translate(114.636135 58.913376)scale(0.1 -0.1)">
     <defs>
      <path id="DejaVuSans-5a" d="M 359 4666 
L 4025 4666 
L 4025 4184 
L 1075 531 
L 4097 531 
L 4097 0 
L 288 0 
L 288 481 
L 3238 4134 
L 359 4134 
L 359 4666 
z
" transform="scale(0.015625)"/>
     </defs>
     <use xlink:href="#DejaVuSans-5a" transform="translate(0 0.09375)"/>
    </g>
   </g>
   <g id="text_7">
    <!-- $\mathrm{N}$ -->
    <g style="fill: #008000" transform="translate(83.993222 85.35515)scale(0.1 -0.1)">
     <defs>
      <path id="DejaVuSans-4e" d="M 628 4666 
L 1478 4666 
L 3547 763 
L 3547 4666 
L 4159 4666 
L 4159 0 
L 3309 0 
L 1241 3903 
L 1241 0 
L 628 0 
L 628 4666 
z
" transform="scale(0.015625)"/>
     </defs>
     <use xlink:href="#DejaVuSans-4e" transform="translate(0 0.09375)"/>
    </g>
   </g>
   <g id="text_8">
    <!-- $\mathrm{\Gamma}$ -->
    <g style="fill: #008000" transform="translate(115.286135 111.487052)scale(0.1 -0.1)">
     <use xlink:href="#DejaVuSans-393" transform="translate(0 0.09375)"/>
    </g>
   </g>
   <g id="text_9">
    <!-- $\mathrm{M}$ -->
    <g style="fill: #008000" transform="translate(150.19299 94.688679)scale(0.1 -0.1)">
     <defs>
      <path id="DejaVuSans-4d" d="M 628 4666 
L 1569 4666 
L 2759 1491 
L 3956 4666 
L 4897 4666 
L 4897 0 
L 4281 0 
L 4281 4097 
L 3078 897 
L 2444 897 
L 1241 4097 
L 1241 0 
L 628 0 
L 628 4666 
z
" transform="scale(0.015625)"/>
     </defs>
     <use xlink:href="#DejaVuSans-4d" transform="translate(0 0.09375)"/>
    </g>
   </g>
   <g id="text_10">
    <!-- $\mathrm{R}$ -->
    <g style="fill: #008000" transform="translate(120.700076 121.130453)scale(0.1 -0.1)">
     <defs>
      <path id="DejaVuSans-52" d="M 2841 2188 
Q 3044 2119 3236 1894 
Q 3428 1669 3622 1275 
L 4263 0 
L 3584 0 
L 2988 1197 
Q 2756 1666 2539 1819 
Q 2322 1972 1947 1972 
L 1259 1972 
L 1259 0 
L 628 0 
L 628 4666 
L 2053 4666 
Q 2853 4666 3247 4331 
Q 3641 3997 3641 3322 
Q 3641 2881 3436 2590 
Q 3231 2300 2841 2188 
z
M 1259 4147 
L 1259 2491 
L 2053 2491 
Q 2509 2491 2742 2702 
Q 2975 2913 2975 3322 
Q 2975 3731 2742 3939 
Q 2509 4147 2053 4147 
L 1259 4147 
z
" transform="scale(0.015625)"/>
     </defs>
     <use xlink:href="#DejaVuSans-52" transform="translate(0 0.09375)"/>
    </g>
   </g>
   <g id="text_11">
    <!-- $\mathrm{\Gamma}$ -->
    <g style="fill: #008000" transform="translate(115.286135 111.487052)scale(0.1 -0.1)">
     <use xlink:href="#DejaVuSans-393" transform="translate(0 0.09375)"/>
    </g>
   </g>
   <g id="patch_4">
    <path d="M 119.512456 114.966396 
Q 154.54167 149.340747 188.772889 182.932023 
" clip-path="url(#p176ca7e6d7)" style="fill: none; stroke: #000000; stroke-linecap: round"/>
    <path d="M 185.864528 174.473806 
L 188.772889 182.932023 
L 180.261299 180.183781 
L 185.864528 174.473806 
z
" clip-path="url(#p176ca7e6d7)" style="stroke: #000000; stroke-linecap: round"/>
   </g>
   <g id="Path3DCollection_2">
    <g clip-path="url(#p176ca7e6d7)">
     <use xlink:href="#m8137eb790d" x="118.086135" y="113.56674" style="fill: #0000ff; stroke: #0000ff"/>
    </g>
   </g>
   <g id="patch_5">
    <path d="M 118.086135 111.567631 
Q 118.086135 60.992947 118.086135 11.536297 
" clip-path="url(#p176ca7e6d7)" style="fill: none; stroke: #000000; stroke-linecap: round"/>
    <path d="M 114.086135 19.536297 
L 118.086135 11.536297 
L 122.086135 19.536297 
L 114.086135 19.536297 
z
" clip-path="url(#p176ca7e6d7)" style="stroke: #000000; stroke-linecap: round"/>
   </g>
   <g id="Path3DCollection_3">
    <g clip-path="url(#p176ca7e6d7)">
     <use xlink:href="#m8137eb790d" x="118.086135" y="113.56674" style="fill: #0000ff; stroke: #0000ff"/>
    </g>
   </g>
   <g id="Path3DCollection_4">
    <g clip-path="url(#p176ca7e6d7)">
     <use xlink:href="#m8137eb790d" x="118.086135" y="113.56674" style="fill: #0000ff; stroke: #0000ff"/>
    </g>
   </g>
   <g id="Path3DCollection_5">
    <g clip-path="url(#p176ca7e6d7)">
     <use xlink:href="#m8137eb790d" x="154.54299" y="149.342043" style="fill: #0000ff; stroke: #0000ff"/>
    </g>
   </g>
   <g id="Path3DCollection_6">
    <g clip-path="url(#p176ca7e6d7)">
     <use xlink:href="#m8137eb790d" x="87.743222" y="140.008513" style="fill: #0000ff; stroke: #0000ff"/>
    </g>
   </g>
   <g id="Path3DCollection_7">
    <g clip-path="url(#p176ca7e6d7)">
     <use xlink:href="#m8137eb790d" x="124.200076" y="175.783816" style="fill: #0000ff; stroke: #0000ff"/>
    </g>
   </g>
   <g id="Path3DCollection_8">
    <g clip-path="url(#p176ca7e6d7)">
     <use xlink:href="#m8137eb790d" x="118.086135" y="60.993064" style="fill: #0000ff; stroke: #0000ff"/>
    </g>
   </g>
   <g id="Path3DCollection_9">
    <g clip-path="url(#p176ca7e6d7)">
     <use xlink:href="#m8137eb790d" x="154.54299" y="96.768367" style="fill: #0000ff; stroke: #0000ff"/>
    </g>
   </g>
   <g id="Path3DCollection_10">
    <g clip-path="url(#p176ca7e6d7)">
     <use xlink:href="#m8137eb790d" x="87.743222" y="87.434837" style="fill: #0000ff; stroke: #0000ff"/>
    </g>
   </g>
   <g id="Path3DCollection_11">
    <g clip-path="url(#p176ca7e6d7)">
     <use xlink:href="#m8137eb790d" x="124.200076" y="123.21014" style="fill: #0000ff; stroke: #0000ff"/>
    </g>
   </g>
  </g>
 </g>
 <defs>
  <clipPath id="p176ca7e6d7">
   <rect x="7.2" y="7.2" width="217.44" height="217.44"/>
  </clipPath>
 </defs>
</svg>
